<?xml version="1.0" encoding="UTF-8"?>
<svg width="30px" height="30px" viewBox="0 0 30 30" version="1.1" xmlns="http://www.w3.org/2000/svg" xmlns:xlink="http://www.w3.org/1999/xlink">
    <!-- Generator: Sketch 52.6 (67491) - http://www.bohemiancoding.com/sketch -->
    <title>Icons / Favorite / Outline </title>
    <desc>Created with Sketch.</desc>
    <g id="Icons-/-Favorite-/-Outline-" stroke="none" stroke-width="1" fill="none" fill-rule="evenodd">
        <path d="M21.72,2 C18.9525,2 16.50375,3.46167712 15,5.70466508 C13.49625,3.46167712 11.0475,2 8.28,2 C3.706875,2 0,5.99134761 0,10.9154229 C0,13.5722835 1.078125,15.9565938 2.79,17.5898767 L14.964375,30 L27.07125,17.7211046 C28.86375,16.0858029 30,13.6449636 30,10.9154229 C30,5.99134761 26.29125,2 21.72,2 M21.656,4 C25.1548571,4 28,7.06760049 28,10.8355664 C28,12.8486167 27.1828571,14.7516095 25.7547143,16.0542892 L25.7175714,16.0883069 L25.6822857,16.1243257 L14.9684286,27 L4.13757143,15.954237 C2.78,14.6555594 2,12.7905864 2,10.8355664 C2,7.06760049 4.847,4 8.344,4 C10.3775714,4 12.3015714,5.06255438 13.4938571,6.84148251 L15,9.09065599 L16.5061429,6.84148251 C17.6965714,5.06255438 19.6224286,4 21.656,4" id="Fill-1" fill="#A2A2A2"></path>
    </g>
</svg>