<?xml version="1.0" encoding="UTF-8"?>
<svg width="30px" height="30px" viewBox="0 0 30 30" version="1.1" xmlns="http://www.w3.org/2000/svg" xmlns:xlink="http://www.w3.org/1999/xlink">
    <!-- Generator: Sketch 52.6 (67491) - http://www.bohemiancoding.com/sketch -->
    <title>Icons/ notification / Outline</title>
    <desc>Created with Sketch.</desc>
    <g id="Icons/-notification-/-Outline" stroke="none" stroke-width="1" fill="none" fill-rule="evenodd">
        <path d="M24.0967914,17.6681186 C23.8238015,17.4752561 23.6631174,17.1724359 23.6631174,16.8508299 L23.6631174,10.1698032 C23.6631174,5.66648749 19.7977004,2.0123734 15.02092,2.00003126 C10.2490121,1.98770172 6.36961992,5.62391954 6.35512709,10.1226209 L6.33332834,16.8891422 C6.33228983,17.2115048 6.16987462,17.514483 5.8951896,17.7064701 L2,20.4289555 L2,24 L28,24 L28,20.4256658 L24.0967914,17.6681186 Z M20.8899801,26 C20.3803827,28.2822403 18.1608537,30 15.5,30 C12.8391463,30 10.6196173,28.2822403 10.1100199,26 L1.07142857,26 C0.479694911,26 0,25.5442381 0,24.9820274 L0,19.8921643 C0,19.569765 0.160742133,19.2664235 0.43332897,19.0744156 L4.28735134,16.3596734 L4.30727843,10.1258402 C4.32520556,4.51765884 9.12387879,-0.0153313144 15.026563,3.89724091e-05 C20.9320213,0.0154164831 25.7107755,4.56820866 25.7107755,10.1790517 L25.7107755,16.3290101 L29.5710917,19.0775462 C29.8410817,19.2697785 30,19.5716092 30,19.8921643 L30,24.9820274 C30,25.5442381 29.5203051,26 28.9285714,26 L20.8899801,26 Z M18.6122237,26 L12.3877763,26 C12.8407963,27.1651924 14.0631593,28 15.5,28 C16.9368407,28 18.1592037,27.1651924 18.6122237,26 Z" id="bel" fill="#A2A2A2"></path>
    </g>
</svg>