<?xml version="1.0" encoding="UTF-8"?>
<svg width="58px" height="58px" viewBox="0 0 58 58" version="1.1" xmlns="http://www.w3.org/2000/svg" xmlns:xlink="http://www.w3.org/1999/xlink">
    <!-- Generator: Sketch 52.6 (67491) - http://www.bohemiancoding.com/sketch -->
    <title>Group 2</title>
    <desc>Created with Sketch.</desc>
    <defs>
        <polygon id="path-1" points="3.5766955e-05 31.1692159 28.1405221 31.1692159 28.1405221 0.000180343482 3.5766955e-05 0.000180343482 3.5766955e-05 31.1692159"></polygon>
    </defs>
    <g id="Page-1" stroke="none" stroke-width="1" fill="none" fill-rule="evenodd">
        <g id="Main-actions-modal" transform="translate(-79.000000, -526.000000)">
            <g id="Group-2" transform="translate(80.000000, 527.000000)">
                <g id="Icons-/-Text">
                    <circle id="Oval" stroke="#FFFFFF" stroke-width="2" cx="28" cy="28" r="28"></circle>
                    <path d="M38.0181905,17.7089708 L38.0236297,17.7138661 C43.5149659,22.6586452 43.5123895,30.6735569 38.0181905,35.6157595 L38.0138964,35.6196242 L28.0701177,45.1690871 L28.0701177,39.3246015 C24.3382305,39.3248591 20.7592145,37.9907581 18.1203272,35.6157595 C12.6261282,30.6707228 12.6267008,22.6529769 18.121186,17.7081978 C23.6156712,12.7636764 32.5242778,12.7639341 38.0181905,17.7089708 Z M20.5,30 C20.2238576,30 20,30.2238576 20,30.5 L20,31.5 C20,31.7761424 20.2238576,32 20.5,32 L27.5,32 C27.7761424,32 28,31.7761424 28,31.5 L28,30.5 C28,30.2238576 27.7761424,30 27.5,30 L20.5,30 Z M20.5,22 C20.2238576,22 20,22.2238576 20,22.5 L20,23.5 C20,23.7761424 20.2238576,24 20.5,24 L35.5,24 C35.7761424,24 36,23.7761424 36,23.5 L36,22.5 C36,22.2238576 35.7761424,22 35.5,22 L20.5,22 Z M20.5,26 C20.2238576,26 20,26.2238576 20,26.5 L20,27.5 C20,27.7761424 20.2238576,28 20.5,28 L35.5,28 C35.7761424,28 36,27.7761424 36,27.5 L36,26.5 C36,26.2238576 35.7761424,26 35.5,26 L20.5,26 Z" id="Combined-Shape" fill="#FFFFFF"></path>
                </g>
                <g id="Page-1" transform="translate(14.000000, 14.000000)">
                    <mask id="mask-2" fill="white">
                        <use xlink:href="#path-1"></use>
                    </mask>
                    <g id="Clip-2"></g>
                </g>
            </g>
        </g>
    </g>
</svg>