<?xml version="1.0" encoding="UTF-8"?>
<svg width="30px" height="30px" viewBox="0 0 30 30" version="1.1" xmlns="http://www.w3.org/2000/svg" xmlns:xlink="http://www.w3.org/1999/xlink">
    <!-- Generator: Sketch 52.6 (67491) - http://www.bohemiancoding.com/sketch -->
    <title>Icons/ Chat / Outine</title>
    <desc>Created with Sketch.</desc>
    <g id="Icons/-Chat-/-Outine" stroke="none" stroke-width="1" fill="none" fill-rule="evenodd">
        <g id="chat-message_32" fill="#A2A2A2" fill-rule="nonzero">
            <path d="M25.605,3.515 C22.7956857,1.26084908 18.9788928,-0.00421712565 15,2.55704e-16 C11.0210248,-0.00454940769 7.20407872,1.26056757 4.395,3.515 C1.68,5.687 0,8.686 0,12 C0,15.314 1.68,18.313 4.395,20.485 C7.20407872,22.7394324 11.0210248,24.0045494 15,24 L15,30 L25.605,20.984 C28.32,18.685 30,15.508 30,12 C30,8.686 28.32,5.687 25.605,3.515 Z M23.78375,19.613 L17.5,24.956 L17.5,22 L15,22 C11.6830601,22.0075204 8.50042583,20.9523444 6.1625,19.07 C3.80125,17.182 2.5,14.671 2.5,12 C2.5,9.329 3.80125,6.818 6.1625,4.929 C8.5225,3.04 11.66125,2 15,2 C18.33875,2 21.4775,3.04 23.8375,4.93 C26.1900759,6.80053089 27.5089817,9.34651425 27.5,12 C27.5,14.881 26.18125,17.583 23.78375,19.613 Z" id="Shape"></path>
        </g>
    </g>
</svg>