<?xml version="1.0" encoding="UTF-8"?>
<svg width="66px" height="66px" viewBox="0 0 66 66" version="1.1" xmlns="http://www.w3.org/2000/svg" xmlns:xlink="http://www.w3.org/1999/xlink">
    <!-- Generator: Sketch 52.6 (67491) - http://www.bohemiancoding.com/sketch -->
    <title>icons / emergency copy</title>
    <desc>Created with Sketch.</desc>
    <g id="Bizarre-Behavior" stroke="none" stroke-width="1" fill="none" fill-rule="evenodd">
        <g id="Panic-Button" transform="translate(-155.000000, -83.000000)">
            <g id="icons-/-emergency-copy" transform="translate(156.000000, 84.000000)">
                <ellipse id="Oval" stroke="#FFFFFF" stroke-width="2" cx="31.9989102" cy="32" rx="31.4385965" ry="32"></ellipse>
                <path d="M31.9989102,53.7142857 C20.2168355,53.7142857 10.6655769,43.9924689 10.6655769,32 C10.6655769,20.0075311 20.2168355,10.2857143 31.9989102,10.2857143 C43.7809849,10.2857143 53.3322435,20.0075311 53.3322435,32 C53.3322435,43.9924689 43.7809849,53.7142857 31.9989102,53.7142857 Z M32.7538751,36.6685714 L34.2718751,27.2965714 L34.2718751,20.8945714 L29.1238751,20.8945714 L29.1238751,27.2965714 L30.6748751,36.6685714 L32.7538751,36.6685714 Z M31.6648751,44.3245714 C33.7438751,44.3245714 34.6018751,43.2355714 34.6018751,41.8165714 L34.6018751,41.0245714 C34.6018751,39.6055714 33.7438751,38.5165714 31.6648751,38.5165714 C29.5858751,38.5165714 28.7278751,39.6055714 28.7278751,41.0245714 L28.7278751,41.8165714 C28.7278751,43.2355714 29.5858751,44.3245714 31.6648751,44.3245714 Z" id="Combined-Shape" fill="#FFFFFF" fill-rule="evenodd"></path>
            </g>
        </g>
    </g>
</svg>