<?xml version="1.0" encoding="UTF-8"?>
<svg width="56px" height="56px" viewBox="0 0 56 56" version="1.1" xmlns="http://www.w3.org/2000/svg" xmlns:xlink="http://www.w3.org/1999/xlink">
    <!-- Generator: Sketch 52.6 (67491) - http://www.bohemiancoding.com/sketch -->
    <title>Icons / Speech / Active</title>
    <desc>Created with Sketch.</desc>
    <g id="Episode---Talk" stroke="none" stroke-width="1" fill="none" fill-rule="evenodd">
        <g id="Speak-" transform="translate(-160.000000, -471.000000)" fill="#FFFFFF">
            <g id="Icons-/-Speech-/-Active" transform="translate(160.000000, 471.000000)">
                <path d="M28,56 C12.536027,56 -7.10542736e-15,43.463973 -7.10542736e-15,28 C-7.10542736e-15,12.536027 12.536027,7.10542736e-15 28,7.10542736e-15 C43.463973,7.10542736e-15 56,12.536027 56,28 C56,43.463973 43.463973,56 28,56 Z M28.4313151,34.0579103 C31.7987671,34.0579103 34.5282055,31.3051813 34.5282055,27.9089944 L34.5282055,17.1487888 C34.5282055,13.7532374 31.7987671,11.0001907 28.4313151,11.0001907 C25.0641781,11.0001907 22.3344247,13.7532374 22.3344247,17.1487888 L22.3344247,27.9089944 C22.3344247,31.3051813 25.0641781,34.0579103 28.4313151,34.0579103 Z M36.8144055,27.9091215 C36.8144055,32.5715701 33.0543781,36.3636822 28.4313781,36.3636822 C23.8086932,36.3636822 20.0483507,32.5715701 20.0483507,27.9091215 L17.000063,27.9091215 C17.000063,33.7536262 21.3165014,38.5711402 26.9070767,39.3245421 L26.9070767,41.7439439 L23.858789,41.7439439 L23.858789,44.818243 L33.0036521,44.818243 L33.0036521,41.7439439 L29.9556795,41.7439439 L29.9556795,39.3245421 C35.5462548,38.5711402 39.8626932,33.7536262 39.8626932,27.9091215 L36.8144055,27.9091215 Z" id="Combined-Shape"></path>
            </g>
        </g>
    </g>
</svg>