<?xml version="1.0" encoding="UTF-8"?>
<svg width="56px" height="56px" viewBox="0 0 56 56" version="1.1" xmlns="http://www.w3.org/2000/svg" xmlns:xlink="http://www.w3.org/1999/xlink">
    <!-- Generator: Sketch 52.6 (67491) - http://www.bohemiancoding.com/sketch -->
    <title>Icons / Write Copy</title>
    <desc>Created with Sketch.</desc>
    <g id="Episode---Talk" stroke="none" stroke-width="1" fill="none" fill-rule="evenodd">
        <g id="blank" transform="translate(-80.000000, -526.000000)" fill="#FFFFFF" fill-rule="nonzero">
            <g id="Icons-/-Write-Copy" transform="translate(80.000000, 526.000000)">
                <path d="M28,56 C12.536027,56 0,43.463973 0,28 C0,12.536027 12.536027,0 28,0 C43.463973,0 56,12.536027 56,28 C56,43.463973 43.463973,56 28,56 Z M37.160398,18.5765075 C31.8626965,13.8080793 23.2722544,13.8078308 17.9740008,18.5757622 C12.6757472,23.343942 12.6751951,31.0753399 17.9731726,35.8437681 C20.517814,38.1339454 23.969008,39.4203999 27.5676135,39.4201514 L27.5676135,45.0559054 L37.1562572,35.8474948 L37.160398,35.8437681 C42.4583755,31.0780728 42.46086,23.3494078 37.165643,18.581228 L37.160398,18.5765075 Z M20.2857143,30.4285714 L27,30.4285714 C27.2761424,30.4285714 27.5,30.6524291 27.5,30.9285714 L27.5,31.8571429 C27.5,32.1332852 27.2761424,32.3571429 27,32.3571429 L20.2857143,32.3571429 C20.0095719,32.3571429 19.7857143,32.1332852 19.7857143,31.8571429 L19.7857143,30.9285714 C19.7857143,30.6524291 20.0095719,30.4285714 20.2857143,30.4285714 Z M20.2857143,22.7142857 L34.7142857,22.7142857 C34.9904281,22.7142857 35.2142857,22.9381433 35.2142857,23.2142857 L35.2142857,24.1428571 C35.2142857,24.4189995 34.9904281,24.6428571 34.7142857,24.6428571 L20.2857143,24.6428571 C20.0095719,24.6428571 19.7857143,24.4189995 19.7857143,24.1428571 L19.7857143,23.2142857 C19.7857143,22.9381433 20.0095719,22.7142857 20.2857143,22.7142857 Z M20.2857143,26.5714286 L34.7142857,26.5714286 C34.9904281,26.5714286 35.2142857,26.7952862 35.2142857,27.0714286 L35.2142857,28 C35.2142857,28.2761424 34.9904281,28.5 34.7142857,28.5 L20.2857143,28.5 C20.0095719,28.5 19.7857143,28.2761424 19.7857143,28 L19.7857143,27.0714286 C19.7857143,26.7952862 20.0095719,26.5714286 20.2857143,26.5714286 Z" id="Combined-Shape"></path>
            </g>
        </g>
    </g>
</svg>