<?xml version="1.0" encoding="UTF-8"?>
<svg width="58px" height="58px" viewBox="0 0 58 58" version="1.1" xmlns="http://www.w3.org/2000/svg" xmlns:xlink="http://www.w3.org/1999/xlink">
    <!-- Generator: Sketch 52.6 (67491) - http://www.bohemiancoding.com/sketch -->
    <title>Icons / Speech</title>
    <desc>Created with Sketch.</desc>
    <defs>
        <polygon id="path-1" points="11.4313466 17.1588785 22.8626301 17.1588785 22.8626301 0.249757009 6.30136986e-05 0.249757009 6.30136986e-05 17.1588785"></polygon>
    </defs>
    <g id="Page-1" stroke="none" stroke-width="1" fill="none" fill-rule="evenodd">
        <g id="Main-actions-modal" transform="translate(-159.000000, -480.000000)">
            <g id="Icons-/-Speech" transform="translate(160.000000, 481.000000)">
                <g id="Page-1" transform="translate(17.000000, 11.000000)">
                    <g id="Group-3" transform="translate(0.000000, 16.659364)">
                        <mask id="mask-2" fill="white">
                            <use xlink:href="#path-1"></use>
                        </mask>
                        <g id="Clip-2"></g>
                        <path d="M22.8626932,0.249757009 L19.8144055,0.249757009 C19.8144055,4.91220561 16.0543781,8.70431776 11.4313781,8.70431776 C6.80869315,8.70431776 3.04835068,4.91220561 3.04835068,0.249757009 L6.30136986e-05,0.249757009 C6.30136986e-05,6.09426168 4.31650137,10.9117757 9.90707671,11.6651776 L9.90707671,14.0845794 L6.85878904,14.0845794 L6.85878904,17.1588785 L16.0036521,17.1588785 L16.0036521,14.0845794 L12.9556795,14.0845794 L12.9556795,11.6651776 C18.5462548,10.9117757 22.8626932,6.09426168 22.8626932,0.249757009" id="Fill-1" fill="#FFFFFF" mask="url(#mask-2)"></path>
                    </g>
                    <path d="M11.4313151,23.0579103 C14.7987671,23.0579103 17.5282055,20.3051813 17.5282055,16.9089944 L17.5282055,6.14878879 C17.5282055,2.75323738 14.7987671,0.000190654206 11.4313151,0.000190654206 C8.06417808,0.000190654206 5.33442466,2.75323738 5.33442466,6.14878879 L5.33442466,16.9089944 C5.33442466,20.3051813 8.06417808,23.0579103 11.4313151,23.0579103" id="Fill-4" fill="#FFFFFF"></path>
                </g>
                <circle id="Oval" stroke="#FFFFFF" stroke-width="2" cx="28" cy="28" r="28"></circle>
            </g>
        </g>
    </g>
</svg>