<?xml version="1.0" encoding="UTF-8"?>
<svg width="60px" height="60px" viewBox="0 0 60 60" version="1.1" xmlns="http://www.w3.org/2000/svg" xmlns:xlink="http://www.w3.org/1999/xlink">
    <!-- Generator: Sketch 52.6 (67491) - http://www.bohemiancoding.com/sketch -->
    <title>Icons / Play</title>
    <desc>Created with Sketch.</desc>
    <defs>
        <polygon id="path-1" points="59.5074054 58.7647059 0 58.7647059 0 0.482505882 59.5074054 0.482505882 59.5074054 58.7647059"></polygon>
    </defs>
    <g id="Icons-/-Play" stroke="none" stroke-width="1" fill="none" fill-rule="evenodd" opacity="0.852437034">
        <g id="play-button">
            <g id="Group-3" transform="translate(0.000000, 0.047118)">
                <mask id="mask-2" fill="white">
                    <use xlink:href="#path-1"></use>
                </mask>
                <g id="Clip-2"></g>
                <path d="M29.7538919,56.6832706 C14.5198378,56.6832706 2.12524324,44.5438588 2.12524324,29.6234471 C2.12524324,14.7030353 14.5198378,2.56362353 29.7538919,2.56362353 C44.9879459,2.56362353 57.382,14.7030353 57.382,29.6234471 C57.382,44.5438588 44.9879459,56.6832706 29.7538919,56.6832706 M29.7538919,0.482505882 C13.3225405,0.482505882 -0.000162162162,13.5298588 -0.000162162162,29.6234471 C-0.000162162162,45.7165059 13.3225405,58.7649176 29.7538919,58.7649176 C46.1852432,58.7649176 59.5074054,45.7165059 59.5074054,29.6234471 C59.5074054,13.5298588 46.1852432,0.482505882 29.7538919,0.482505882" id="Fill-1" fill="#FFFFFF" mask="url(#mask-2)"></path>
            </g>
            <polygon id="Fill-4" fill="#FFFFFF" points="19.1272973 42.1596529 44.6310811 29.6703 19.1272973 17.1814765"></polygon>
        </g>
    </g>
</svg>