<?xml version="1.0" encoding="UTF-8"?>
<svg width="64px" height="48px" viewBox="0 0 64 48" version="1.1" xmlns="http://www.w3.org/2000/svg" xmlns:xlink="http://www.w3.org/1999/xlink">
    <!-- Generator: Sketch 52.6 (67491) - http://www.bohemiancoding.com/sketch -->
    <title>Group 15</title>
    <desc>Created with Sketch.</desc>
    <g id="Home-Feed-1" stroke="none" stroke-width="1" fill="none" fill-rule="evenodd">
        <g id="Home--Copy" transform="translate(-156.000000, -513.000000)">
            <g id="Group-16" transform="translate(16.000000, 429.000000)">
                <g id="Group-15" transform="translate(140.000000, 84.000000)">
                    <g id="Page-1" fill="#A6A5A6">
                        <path d="M26.9321579,37.7533474 C34.6842632,37.7533474 42.4363684,37.7536632 50.1884737,37.7530316 C51.4154211,37.7529263 51.7421579,37.4247158 51.7422632,36.1865053 C51.7432105,26.8033474 51.7433158,17.4200842 51.7421579,8.03682105 C51.7420526,6.80166316 51.429,6.49587368 50.1753158,6.49555789 C46.8955263,6.49461053 43.6156316,6.47461053 40.3361579,6.50661053 C39.2302632,6.51755789 38.4062632,6.09187368 37.7885789,5.21597895 C37.1827895,4.35713684 36.5926842,3.48724211 36.0022632,2.61776842 C35.7863684,2.29997895 35.5126842,2.17829474 35.1180526,2.17913684 C29.6811053,2.19071579 24.2440526,2.19145263 18.8071053,2.17818947 C18.3922632,2.17713684 18.107,2.29945263 17.8791053,2.63555789 C17.2695263,3.53429474 16.665,4.43734737 16.0266842,5.31566316 C15.4456316,6.11524211 14.6631053,6.51345263 13.6415263,6.50397895 C10.8706842,6.47829474 8.09942105,6.49450526 5.32836842,6.49566316 C4.62689474,6.49597895 3.92478947,6.48418947 3.22415789,6.51071579 C2.60878947,6.53408421 2.259,6.87713684 2.18068421,7.48208421 C2.15615789,7.6724 2.15310526,7.86661053 2.15310526,8.05903158 C2.15173684,17.4247158 2.15163158,26.7904 2.15352632,36.1559789 C2.15363158,36.3832421 2.16026316,36.6131368 2.19394737,36.8372421 C2.26752632,37.3270316 2.56510526,37.6229263 3.04815789,37.7073474 C3.28773684,37.7491368 3.53636842,37.7514526 3.781,37.7515579 C11.4980526,37.7537684 19.215,37.7533474 26.9321579,37.7533474 L26.9321579,37.7533474 Z M5.26315789e-05,6.94745263 C0.355421053,6.35724211 0.635631579,5.7004 1.08478947,5.19334737 C1.69668421,4.50261053 2.57415789,4.32271579 3.48394737,4.32387368 C6.81689474,4.32776842 10.1499474,4.31734737 13.4827895,4.33503158 C13.9186842,4.33745263 14.2111053,4.20692632 14.4480526,3.85134737 C15.0115263,3.00566316 15.5848947,2.1664 16.169,1.33482105 C16.8077368,0.425347368 17.6614211,-0.0056 18.8059474,8.42105263e-05 C24.2613158,0.0267157895 29.717,0.0228210526 35.1723684,0.00261052632 C36.2331053,-0.00138947368 37.0446842,0.403768421 37.6480526,1.23461053 C38.2757368,2.09924211 38.8683684,2.98955789 39.4658421,3.87576842 C39.6927895,4.21218947 39.9731053,4.33734737 40.3903684,4.33503158 C43.6881579,4.31755789 46.9860526,4.32461053 50.2839474,4.32566316 C52.5871053,4.3264 53.8945789,5.64071579 53.8946842,7.95397895 C53.8948947,17.4441895 53.8956316,26.9342947 53.8939474,36.4245053 C53.8936316,38.1887158 52.9540526,39.4435579 51.3444737,39.8175579 C51.0579474,39.8841895 50.7537368,39.8969263 50.4575263,39.8969263 C34.7926842,39.9006105 19.1277368,39.9008211 3.46289474,39.8992421 C1.72921053,39.8991368 0.641736842,39.0978737 0.0977368421,37.4427158 C0.0767894737,37.3789263 0.0331052632,37.3228211 5.26315789e-05,37.2632421 L5.26315789e-05,6.94745263 Z" id="Fill-1"></path>
                        <path d="M26.9350316,8.64171579 C20.4109263,8.65761053 15.0889263,13.9854 15.0893474,20.5000316 C15.0898737,27.0281368 20.3868211,32.3243474 26.9333474,32.3424526 C33.4761895,32.3605579 38.8631368,26.9759263 38.8057684,20.4754 C38.7478737,13.9125579 33.4446105,8.62592632 26.9350316,8.64171579 M26.9571368,34.5182421 C19.2627158,34.5327684 12.9699789,28.2549789 12.9426105,20.5370842 C12.9152421,12.8042421 19.1855579,6.51518947 26.9375579,6.50024211 C34.6691368,6.48550526 40.9619789,12.7795053 40.9521895,20.5175053 C40.9425053,28.2277158 34.6690316,34.5037158 26.9571368,34.5182421" id="Fill-3"></path>
                        <path d="M9.17937895,14.0624526 C8.78201053,14.0161368 8.37022105,14.0205579 7.98990526,13.9136105 C7.01432632,13.6392947 6.40727368,12.7169789 6.48937895,11.7168737 C6.57327368,10.6951895 7.29190526,9.89003158 8.30358947,9.77466316 C8.85516842,9.71171579 9.42516842,9.70855789 9.97685263,9.76961053 C11.0911684,9.89297895 11.8899053,10.8500316 11.8505368,11.9347684 C11.8094842,13.0659263 10.9480105,13.9474 9.81390526,14.0120316 C9.60453684,14.0238211 9.3938,14.0136105 9.1838,14.0136105 C9.18222105,14.0298211 9.18085263,14.0462421 9.17937895,14.0624526" id="Fill-5"></path>
                    </g>
                    <ellipse id="Oval-3" stroke="#979797" stroke-width="2" fill="#FFFFFF" cx="53.3152354" cy="38" rx="9.31523541" ry="9"></ellipse>
                    <polygon id="Page-1" fill="#A6A5A6" points="52.4207757 33 52.4207757 37.2854974 48 37.2854974 48 38.7140561 52.4207757 38.7140561 52.4207757 42.9999107 53.8943676 42.9999107 53.8943676 38.7140561 58.3149591 38.7140561 58.3149591 37.2854974 53.8943676 37.2854974 53.8943676 33"></polygon>
                </g>
            </g>
        </g>
    </g>
</svg>